HIERARCHY
ROOT Hips
{
  OFFSET -102.467 93.6631 130.069
  CHANNELS 6 Xposition Yposition Zposition Zrotation Xrotation Yrotation
  JOINT LeftUpLeg
  {
    OFFSET 8.64259 1.95398 -2.38835
    CHANNELS 3 Zrotation Xrotation Yrotation
    JOINT LeftLeg
    {
      OFFSET 43.7702 0 0
      CHANNELS 3 Zrotation Xrotation Yrotation
      JOINT LeftFoot
      {
        OFFSET 40.6238 0 0
        CHANNELS 3 Zrotation Xrotation Yrotation
        JOINT LeftToeBase
        {
          OFFSET 12.7242 0 0
          CHANNELS 3 Zrotation Xrotation Yrotation
          End Site
          {
            OFFSET 0 0 0
          }
        }
      }
    }
  }
  JOINT RightUpLeg
  {
    OFFSET -8.2249 1.95398 -2.59336
    CHANNELS 3 Zrotation Xrotation Yrotation
    JOINT RightLeg
    {
      OFFSET 43.5653 0 0
      CHANNELS 3 Zrotation Xrotation Yrotation
      JOINT RightFoot
      {
        OFFSET 40.6238 0 0
        CHANNELS 3 Zrotation Xrotation Yrotation
        JOINT RightToeBase
        {
          OFFSET 12.7242 0 0
          CHANNELS 3 Zrotation Xrotation Yrotation
          End Site
          {
            OFFSET 0 0 0
          }
        }
      }
    }
  }
  JOINT Spine
  {
    OFFSET 0.165834 0.87714 6.61349
    CHANNELS 3 Zrotation Xrotation Yrotation
    JOINT Spine1
    {
      OFFSET 7.38963 1.71661e-005 0
      CHANNELS 3 Zrotation Xrotation Yrotation
      JOINT Spine2
      {
        OFFSET 11.9445 1.14441e-005 0
        CHANNELS 3 Zrotation Xrotation Yrotation
        JOINT Spine3
        {
          OFFSET 14.7254 4.19617e-005 0
          CHANNELS 3 Zrotation Xrotation Yrotation
          JOINT Spine4
          {
            OFFSET 10.9679 0 0
            CHANNELS 3 Zrotation Xrotation Yrotation
            JOINT RightShoulder
            {
              OFFSET 2.46616 -1.6653 3.69651
              CHANNELS 3 Zrotation Xrotation Yrotation
              JOINT RightArm
              {
                OFFSET 13.0012 0 0
                CHANNELS 3 Zrotation Xrotation Yrotation
                JOINT RightForeArm
                {
                  OFFSET 28.7848 1.52588e-005 0
                  CHANNELS 3 Zrotation Xrotation Yrotation
                  JOINT RightHand
                  {
                    OFFSET 26.5688 1.52588e-005 0
                    CHANNELS 3 Zrotation Xrotation Yrotation
                    End Site
                    {
                      OFFSET 0 0 0
                    }
                  }
                }
              }
            }
            JOINT LeftShoulder
            {
              OFFSET 2.38034 -1.29275 -3.7523
              CHANNELS 3 Zrotation Xrotation Yrotation
              JOINT LeftArm
              {
                OFFSET 16.3182 6.10351e-005 0
                CHANNELS 3 Zrotation Xrotation Yrotation
                JOINT LeftForeArm
                {
                  OFFSET 27.0901 0 0
                  CHANNELS 3 Zrotation Xrotation Yrotation
                  JOINT LeftHand
                  {
                    OFFSET 24.5451 1.52588e-005 0
                    CHANNELS 3 Zrotation Xrotation Yrotation
                    End Site
                    {
                      OFFSET 0 0 0
                    }
                  }
                }
              }
            }
            JOINT Neck
            {
              OFFSET 5.0226 -0.0266342 0
              CHANNELS 3 Zrotation Xrotation Yrotation
              JOINT Head
              {
                OFFSET 6.69363 2.86102e-005 0
                CHANNELS 3 Zrotation Xrotation Yrotation
                End Site
                {
                  OFFSET 0 0 0
                }
              }
            }
          }
        }
      }
    }
  }
}
MOTION
Frames:	17
Frame Time:	0.0416667
-27.9679 96.8346 34.792 98.9109 25.7458 90.2036 -178.751 -2.06402 86.2833 -28.5566 26.3287 5.71171 66.8485 9.77985 13.9313 37.8408 -1.81307 -5.14313 176.799 18.0737 85.6494 -27.1887 -4.46558 -1.15654 57.5894 6.64325 15.9552 21.734 1.64201 -0.113629 -0.508303 7.76767 -90.0943 11.3386 -1.0554 -0.0821054 -0.331955 -1.05799 -0.0355767 -22.8702 -0.981913 -0.395531 -2.85753 -0.981914 -0.395532 101.349 -52.5895 -83.4042 33.6545 -9.27589 3.20236 -6.96877 -17.7876 -18.5859 -4.99194 -0.276746 1.43114 -81.0044 -50.5857 92.0977 -23.3068 14.7734 -27.2493 17.3697 23.8088 -37.8145 -3.56729 -0.105242 -2.95784 -8.23088 5.39545 -5.33489 -25.838 2.70252 15.8969 
-20.271 96.7318 32.6386 97.5543 31.4159 88.757 -178.486 -6.49583 87.1159 -26.794 31.263 6.3964 66.6208 10.2952 13.2763 40.8366 -2.18344 -4.43468 177.437 16.3102 83.0505 -6.44928 -2.40859 -2.46813 55.1742 9.99892 21.5787 17.9753 2.53881 0.420208 -0.521829 7.62334 -89.9641 11.6282 -1.02097 0.177816 -0.0423768 -1.01216 0.222574 -22.5807 -1.02723 -0.137286 -2.56806 -1.02721 -0.137288 101.843 -52.7974 -82.6563 34.5885 -8.86981 4.27793 -6.6526 -17.9586 -17.841 -4.77844 -0.301512 2.44083 -81.172 -50.1906 91.8202 -22.331 16.8412 -28.1903 18.2433 21.0109 -42.1416 -3.94058 -0.099959 -3.643 -9.96773 3.89973 -5.9127 -24.8236 1.62016 14.1777 
-11.9935 95.5137 30.5203 97.624 34.7083 88.3808 -179.001 -8.97133 88.4357 -32.6691 32.6121 9.14766 67.9256 10.1115 10.8839 45.5405 -2.40198 -2.14818 177.43 18.0203 83.564 -10.7132 -8.02403 -1.60656 54.4775 10.2655 21.9059 25.112 1.11616 1.63993 -0.491454 7.66323 -90.1225 11.546 -1.03498 -0.138304 -0.124545 -1.04005 -0.092619 -22.6624 -0.945564 -0.442989 -2.64976 -0.945558 -0.44299 101.831 -52.376 -82.6768 33.9297 -8.89842 3.50185 -6.65007 -18.2644 -17.6198 -4.94364 -0.293323 2.02764 -80.7608 -52.0699 92.5433 -22.9201 15.247 -25.9035 18.3169 23.478 -39.7748 -2.46535 -0.0928799 -3.19499 -9.71865 4.12834 -4.50969 -24.2556 1.90815 13.9232 
-2.9905 94.7435 27.639 98.1452 38.11 90.1277 178.93 -8.96526 91.3088 -41.3508 29.7491 11.2186 61.4389 2.91899 2.66843 52.1705 -4.29642 -5.27752 178.412 19.291 87.1287 -24.3265 -14.2329 -1.42763 55.246 8.17575 14.174 26.0617 1.02179 2.81308 -0.559637 7.62373 -90.559 11.6229 -1.37516 -0.970385 -0.047595 -1.41652 -0.908933 -22.5837 -1.01997 -1.3388 -2.57101 -1.01997 -1.3388 101.701 -52.0435 -82.8755 32.6552 -9.059 2.43527 -5.9085 -17.3932 -17.136 -7.25962 -0.481803 2.65834 -80.8131 -52.9343 92.5107 -26.4842 9.78528 -20.917 13.7357 30.2079 -26.0965 -1.48521 -0.0683104 -1.73049 -9.80471 4.59476 -3.78977 -25.1498 2.06254 14.7427 
4.80999 94.1052 24.3917 98.6959 43.399 90.0062 174.715 0.579665 93.3855 -58.6509 26.342 9.57044 48.6855 -5.22886 -3.16333 49.995 -3.54394 -3.97901 176.231 18.9187 87.8412 -36.2447 -12.0007 0.10355 63.6441 5.14837 10.6447 29.92 0.44494 4.15114 -0.561831 7.59594 -90.8081 11.6706 -1.49651 -1.45442 -0.000198083 -1.55904 -1.38717 -22.5324 -0.990284 -1.83686 -2.51971 -0.99027 -1.83687 102.016 -50.7859 -82.3993 32.4464 -10.0171 1.79777 -5.27321 -14.7357 -18.3934 -9.8905 -0.644978 2.51425 -81.7157 -52.12 91.1298 -30.6914 3.93481 -17.0542 6.57096 37.7668 -8.44891 -4.4686 -0.156604 -0.758666 -7.82356 3.70804 -3.68113 -25.5038 1.372 13.6999 
11.9054 94.7094 20.6427 100.699 46.0268 86.8225 175.558 11.8088 91.2544 -69.6754 16.6932 5.90084 50.2772 -2.90179 0.0131496 46.772 -3.12114 -4.42544 175.668 13.2482 87.6922 -39.0731 -10.287 -0.58885 68.1249 3.43031 9.50769 35.1232 -0.591852 4.17113 -0.128686 7.82526 -90.8029 11.2175 -0.629696 -1.53787 -0.454153 -0.696775 -1.50868 -22.9822 -0.13847 -1.65598 -2.96957 -0.138464 -1.65599 101.301 -50.5675 -83.5069 30.012 -9.64779 -0.488377 -4.48394 -11.4143 -19.191 -11.3588 -0.669825 1.72459 -81.9883 -52.926 90.7835 -30.1758 2.60292 -12.6589 5.07765 43.7084 -5.78919 -8.73591 -0.30507 -0.468557 -5.57075 1.72659 -4.73486 -24.1221 -0.0442294 12.3647 
18.0631 95.864 16.5781 100.355 47.4941 83.9625 179.716 19.6801 87.1131 -63.5038 13.4387 3.10483 55.8979 1.54323 3.4693 43.0288 -2.38833 -3.64341 174.5 7.4734 85.2244 -36.5184 -8.69045 -1.12401 70.2019 3.80903 11.3472 36.0553 -0.540318 5.22776 0.225714 7.78807 -90.5746 11.2972 0.181628 -1.16085 -0.374214 0.130367 -1.16773 -22.9059 0.522104 -1.05262 -2.8932 0.522089 -1.05262 101.844 -49.6405 -82.6716 28.1716 -10.3371 -4.07286 -4.6365 -11.6195 -19.4743 -10.5862 -0.633734 1.8642 -81.8027 -53.5188 91.0961 -28.9448 2.81345 -3.8537 8.52525 36.7061 -13.6204 -9.22123 -0.237492 -1.9682 -4.93519 0.607844 -4.22909 -24.0896 -0.913502 10.8509 
23.5855 96.7544 12.4739 98.6207 48.4136 84.1926 -177.583 20.9267 85.2602 -38.4794 11.567 0.45713 56.425 2.33641 5.73843 49.4933 -1.6585 2.96087 173.552 1.83421 84.901 -31.481 -7.59749 -0.945793 69.3714 4.46314 12.759 38.168 -0.879981 5.49848 0.43935 7.76314 -90.513 11.3495 0.635121 -1.08539 -0.321736 0.586721 -1.1123 -22.8557 0.931931 -0.844355 -2.84308 0.931942 -0.844369 101.7 -49.49 -82.8978 25.9227 -11.3509 -7.26948 -5.85605 -11.0038 -23.2268 -10.2025 -0.549479 1.12341 -81.6602 -53.7965 91.322 -30.3653 1.31978 0.951891 9.44157 32.7938 -15.1672 -5.51076 -0.163948 -1.51548 -2.9929 0.287458 -2.49745 -23.7945 -1.05531 9.27448 
28.8935 97.0143 7.93646 96.5509 49.4422 86.4935 -178.988 18.4259 86.1682 -8.40692 8.42617 0.520833 53.4952 -0.154228 6.85886 45.4166 -0.590425 6.36494 172.932 -3.90316 85.667 -25.8004 -3.18078 -0.652963 67.5723 6.34569 17.4594 38.129 -0.687274 6.24896 0.452348 7.72075 -90.5403 11.4345 0.647743 -1.14188 -0.236823 0.596875 -1.16928 -22.7706 0.960972 -0.894443 -2.75792 0.960971 -0.894433 101.546 -49.514 -83.1395 25.0516 -12.2536 -9.45657 -6.35751 -8.83647 -27.676 -11.5784 -0.572009 0.581647 -81.3611 -54.1321 91.777 -31.5706 0.222442 1.17779 9.13122 35.2508 -13.0502 -8.37 -0.225299 -1.798 -0.872954 0.532192 -2.62454 -23.8166 -0.702018 9.02063 
34.5475 95.8168 2.31153 95.8117 48.833 88.4411 -178.684 21.0195 87.8449 -7.99807 8.24277 1.05009 56.4542 -0.878157 4.29307 43.9864 -0.25571 7.66615 172.967 -7.58914 86.4317 -26.2326 -6.64412 -0.876334 63.5803 6.8035 18.1648 49.0536 -2.11766 7.91379 0.564642 7.70186 -90.5326 11.4744 0.874618 -1.14961 -0.196784 0.823173 -1.18701 -22.732 1.17969 -0.833624 -2.71931 1.17968 -0.833629 101.024 -50.225 -83.9442 24.8142 -12.8381 -9.67468 -7.60899 -9.13244 -30.1623 -11.129 -0.445309 -0.540872 -80.9136 -54.6076 92.45 -31.3909 0.651025 0.0488657 9.94599 37.0884 -14.4107 -14.3679 -0.267208 -2.71881 -0.0986869 0.607185 -4.23825 -22.9507 -0.4654 9.92605 
40.8607 94.2749 -4.76075 97.4393 50.3157 85.803 -178.913 22.9864 85.9717 -22.1075 13.7088 1.0052 52.4556 -2.10407 11.5 42.2572 -1.01491 2.5943 170.908 -9.13768 83.6701 -32.5737 -6.58356 -1.11362 51.7829 10.8217 22.1843 47.4404 0.802319 17.702 0.450008 7.76535 -90.1194 11.3455 0.839839 -0.322643 -0.325181 0.824837 -0.359303 -22.8626 0.897974 -0.0553048 -2.84992 0.897971 -0.0553033 101.413 -50.9812 -83.3277 27.4765 -12.4958 -6.78517 -8.83777 -11.3411 -29.9227 -10.6709 -0.491148 0.165688 -81.4356 -54.4897 91.6911 -29.6439 2.04994 -3.14273 9.81339 36.611 -15.0132 -11.7867 -0.23885 -2.60874 0.378642 0.538119 -5.94567 -22.8781 -0.375333 10.5728 
46.4407 93.933 -11.5167 100.434 52.1047 80.7509 -177.892 20.6387 82.8965 -32.1836 15.1389 0.197932 58.9911 2.06256 14.9793 36.5861 -1.217 -2.23575 170.547 0.221484 80.5721 -53.2081 -13.3838 -1.70327 41.6405 13.1037 17.7975 31.6204 0.396596 3.74205 0.244293 7.91432 -89.6615 11.044 0.643348 0.613477 -0.626878 0.669712 0.584561 -23.1617 0.429232 0.778466 -3.14906 0.429227 0.778448 101.145 -50.8893 -83.7439 31.5312 -10.9742 -3.67188 -8.20962 -13.4952 -25.6436 -9.80478 -0.502495 0.822193 -82.3628 -54.7908 90.3755 -26.724 4.0639 -9.90062 8.90631 36.1668 -14.54 -7.4883 -0.224166 -1.18648 0.0852044 0.644117 -4.30024 -22.5595 -0.251536 9.14076 
51.7939 95.1215 -18.3794 103.241 54.6951 79.3832 -177.572 13.6136 83.6962 -33.2139 17.5523 1.11126 63.2917 5.46435 16.033 35.8284 -1.06856 -1.93844 171.624 11.7015 83.9318 -67.539 -16.8763 -1.37916 46.1112 10.7217 13.6163 26.6729 0.650868 1.07557 -0.0798293 8.02189 -89.7386 10.8299 -0.0381984 0.523436 -0.841161 -0.0151185 0.524604 -23.3756 -0.193736 0.487754 -3.36292 -0.193754 0.487757 101.231 -51.134 -83.6063 33.0394 -11.3571 -2.75779 -6.98719 -15.5294 -21.0417 -7.05371 -0.381826 1.20713 -82.6577 -53.8768 89.8786 -24.9361 5.95807 -17.2763 9.85319 33.9946 -17.3238 -4.68931 -0.120878 -2.86853 -1.20633 1.03238 -2.76734 -22.3494 -0.113703 9.27123 
56.9854 96.4501 -25.1156 104.382 59.3216 80.756 -177.241 7.09504 86.4669 -31.641 19.9964 2.93979 66.1628 8.02008 15.4065 37.1745 -1.17467 -1.40382 170.391 19.9999 88.2128 -62.9273 -13.0825 0.632653 51.5819 8.27654 13.2597 28.1725 0.135943 -0.0471679 -0.513133 7.93543 -90.1065 11.0018 -1.0708 -0.110354 -0.668648 -1.07462 -0.0631239 -23.207 -0.988131 -0.427105 -3.19431 -0.988119 -0.427101 101.146 -51.4518 -83.7318 33.708 -11.814 0.505726 -7.53954 -17.3278 -21.1449 -6.72665 -0.376826 1.45067 -81.9536 -52.1671 90.7801 -24.1182 10.0048 -23.3147 11.4572 29.0255 -23.684 -2.17547 -0.0875163 -1.50897 -1.6962 1.21127 -2.46221 -22.4664 0.0525522 8.98991 
61.9475 97.0491 -31.4633 104.45 61.9857 80.7223 -176.585 0.440278 87.475 -28.5852 22.6954 3.60741 67.1407 9.84932 15.7243 39.3347 -1.28315 -0.287483 170.084 22.2127 88.136 -41.6516 -6.28871 2.92754 54.6032 7.49878 14.509 29.9302 -0.415202 -0.821662 -0.687367 7.89509 -90.1998 11.0821 -1.46091 -0.256611 -0.588 -1.47079 -0.19206 -23.1285 -1.31622 -0.683876 -3.11585 -1.31623 -0.683881 101.238 -52.2959 -83.5756 33.6259 -12.0093 2.60059 -7.45162 -17.9268 -20.6897 -6.3169 -0.345016 1.23112 -81.8658 -51.3601 90.8544 -22.2372 13.0004 -28.4236 13.4255 25.9979 -30.2673 -1.72413 -0.0788495 -2.66376 -0.135164 0.729981 -3.54865 -22.5382 -0.243986 8.94565 
67.1194 97.3434 -37.8714 104.521 63.3469 78.6295 -176.243 -5.75893 87.2316 -24.3943 22.9057 3.78052 66.3213 9.18368 13.0346 43.8313 -1.26185 2.52106 174.138 18.694 85.8463 -13.7401 3.3845 1.68324 54.6258 8.69783 17.1601 29.5051 -0.3164 -0.853889 -0.774577 7.88426 -90.0196 11.1074 -1.55085 0.111393 -0.562635 -1.54444 0.179545 -23.105 -1.51261 -0.359967 -3.09237 -1.51263 -0.359973 101.721 -52.7945 -82.8401 34.241 -10.7085 3.3446 -6.70554 -16.7372 -19.4857 -6.11935 -0.309792 0.788422 -82.3354 -50.1386 90.0524 -20.5525 15.7451 -31.7795 14.5754 24.9577 -34.0009 0.483292 -0.0523256 -2.78466 1.00559 0.0472309 -4.87851 -22.5204 -0.67882 8.89481 
73.0787 96.6582 -44.9269 103.631 64.8175 79.6899 -175.914 -9.17949 89.8394 -27.3932 25.9468 5.36751 63.8312 7.5708 11.3593 53.893 -1.34833 5.59857 176.383 19.6318 86.9874 -10.3186 8.39086 0.405995 57.8983 9.21367 18.0315 31.1241 -0.796133 -1.29157 -0.918778 7.75978 -90.1408 11.3548 -1.89385 -0.0906383 -0.314717 -1.89602 -0.00716582 -22.8599 -1.77905 -0.655811 -2.84728 -1.77903 -0.655807 102.077 -52.9989 -82.303 34.2083 -9.7784 4.06757 -6.95068 -16.7509 -19.5728 -5.26696 -0.247727 0.33253 -82.604 -50.5478 89.6818 -20.64 16.2927 -31.3556 15.2677 28.6259 -33.1693 -1.70396 -0.0815993 -2.8416 1.35171 -0.263301 -5.17709 -21.7914 -0.906873 9.13038 
